# xmcd
#
# Track frame offsets: 
#        150
#        19232
#        34932
#        54361
#        75962
#        93616
#        117516
#        141948
#        158953
#        177516
#        199940
#
# Disc length: 2947 seconds
#
# Revision: 9
# Processed by: cddbd v1.5.2PL0 Copyright (c) Steve Scherf et al.
# Submitted via: ExactAudioCopyFreeDBPlugin 1.0
#
DISCID=950b810b
DTITLE=Robert Plant - Carry Fire
DYEAR=2017
DGENRE=Rock/Pop
TTITLE0=The May Queen
TTITLE1=New World...
TTITLE2=Season's Song
TTITLE3=Dance With You Tonight
TTITLE4=Carving Up the World Again... a wall and not a fence
TTITLE5=A Way With Words
TTITLE6=Carry Fire
TTITLE7=Bones of Saints
TTITLE8=Keep It Hid
TTITLE9=Bluebirds Over the Mountain
TTITLE10=Heaven Sent
EXTD=
EXTT0=
EXTT1=
EXTT2=
EXTT3=
EXTT4=
EXTT5=
EXTT6=
EXTT7=
EXTT8=
EXTT9=
EXTT10=
PLAYORDER=
